<?xml version="1.0" encoding="UTF-8"?>
<svg width="130px" height="34px" viewBox="0 0 130 34" version="1.1" xmlns="http://www.w3.org/2000/svg" xmlns:xlink="http://www.w3.org/1999/xlink">
    <!-- Generator: Sketch 45.2 (43514) - http://www.bohemiancoding.com/sketch -->
    <title>fynd_logo</title>
    <desc>Created with Sketch.</desc>
    <defs>
        <polygon id="path-1" points="4.99484444 0.00233333333 6.66666667e-05 0.00233333333 6.66666667e-05 7.87095556 4.99484444 7.87095556 4.99484444 0.00233333333"></polygon>
        <polygon id="path-3" points="5.05822222 12.5072111 5.05822222 0.0536555556 0.0747111111 0.0536555556 0.0747111111 12.5072111 5.05822222 12.5072111"></polygon>
    </defs>
    <g id="Projects" stroke="none" stroke-width="1" fill="none" fill-rule="evenodd">
        <g id="fynd_logo">
            <g id="Page-1" transform="translate(5.000000, 8.000000)">
                <polygon id="Fill-1" fill="#D61987" points="0 12.1311667 4.98333333 16.2827222 4.98344444 7.97972222 0 3.82905556"></polygon>
                <polygon id="Fill-2" fill="#DF408F" points="9.9669 12.1312333 4.98323333 7.97967778 4.98345556 16.2826778"></polygon>
                <g id="Group-19" transform="translate(0.000000, 0.108778)">
                    <g id="Group-5">
                        <mask id="mask-2" fill="white">
                            <use xlink:href="#path-1"></use>
                        </mask>
                        <g id="Clip-4"></g>
                        <path d="M4.08506667,0.330511111 C4.40562222,0.0700666667 4.72106667,-0.00648888889 4.99484444,0.00306666667 L4.9834,7.87095556 L6.66666667e-05,3.72028889 L4.08506667,0.330511111 Z" id="Fill-3" fill="#DF408F" mask="url(#mask-2)"></path>
                    </g>
                    <path d="M5.89333333,0.331811111 C5.57255556,0.0711444444 5.25744444,-0.00552222222 4.98344444,0.00403333333 L4.98344444,7.86992222 L9.97833333,3.72125556 L5.89333333,0.331811111 Z" id="Fill-6" fill="#E05E9A"></path>
                    <g id="Group-10" transform="translate(14.888889, 3.666667)">
                        <mask id="mask-4" fill="white">
                            <use xlink:href="#path-3"></use>
                        </mask>
                        <g id="Clip-9"></g>
                        <polygon id="Fill-8" fill="#00919B" mask="url(#mask-4)" points="5.05815556 0.0536555556 0.0747111111 4.20432222 0.0748222222 12.5072111 5.05826667 8.35576667"></polygon>
                    </g>
                    <polygon id="Fill-11" fill="#009EA4" points="9.98035556 12.0224556 14.9636889 7.8709 14.9635778 16.1739"></polygon>
                    <path d="M14.9636556,16.1725222 L9.98032222,12.0224111 L9.96687778,12.0224111 L4.98332222,16.1725222 L9.06876667,19.5624111 C9.38565556,19.8201889 9.69687778,19.8963 9.96887778,19.8883 L9.97354444,19.8883 L9.9781,19.8883 C10.2501,19.8963 10.5613222,19.8201889 10.8784333,19.5624111 L14.9636556,16.1725222 Z" id="Fill-13" fill="#774C9E"></path>
                    <path d="M15.8737,0.333111111 C15.5529222,0.0724444444 15.2377,-0.00422222222 14.9637,0.00566666667 L14.9637,7.87088889 L19.9469222,3.72033333 L15.8737,0.333111111 Z" id="Fill-15" fill="#009EA4"></path>
                    <path d="M14.0538222,0.333111111 C14.3743778,0.0724444444 14.6896,-0.00422222222 14.9637111,0.00566666667 L14.9637111,7.87088889 L9.97826667,3.72133333 L14.0538222,0.333111111 Z" id="Fill-17" fill="#00ABAA"></path>
                </g>
            </g>
            <text id="gofynd.com" font-family="Montserrat-Regular, Montserrat" font-size="14" font-weight="normal" fill="#9B9B9B">
                <tspan x="32" y="20">gofynd.com</tspan>
            </text>
            <g id="Group" transform="translate(121.000000, 12.000000)" stroke="#9B9B9B" stroke-linecap="round">
                <path d="M0,-4.4408921e-16 L3.72525852,3.72525852" id="Line-Copy-3"></path>
                <path d="M0,7.66299799 L3.83520236,3.82779563" id="Line"></path>
            </g>
        </g>
    </g>
</svg>
